<svg width="280" height="140" viewBox="0 0 280 140" fill="none" xmlns="http://www.w3.org/2000/svg">
<rect width="280" height="114" rx="20" fill="white"/>
<g clip-path="url(#clip0_0_1)">
<path d="M35.3571 30.4286H40.7143V35.7857H35.3571V30.4286ZM30 30.4286H35.3571V35.7857H30V30.4286ZM30 35.7857H35.3571V41.1429H30V35.7857ZM30 41.1429H35.3571V46.5H30V41.1429ZM30 46.5H35.3571V51.8571H30V46.5ZM30 51.8571H35.3571V57.2143H30V51.8571ZM30 57.2143H35.3571V62.5714H30V57.2143ZM30 62.5714H35.3571V67.9286H30V62.5714ZM30 67.9286H35.3571V73.2857H30V67.9286ZM30 73.2857H35.3571V78.6429H30V73.2857ZM30 78.6429H35.3571V84H30V78.6429ZM35.3571 78.6429H40.7143V84H35.3571V78.6429ZM35.3571 73.2857H40.7143V78.6429H35.3571V73.2857ZM35.3571 67.9286H40.7143V73.2857H35.3571V67.9286ZM35.3571 62.5714H40.7143V67.9286H35.3571V62.5714ZM35.3571 57.2143H40.7143V62.5714H35.3571V57.2143ZM35.3571 51.8571H40.7143V57.2143H35.3571V51.8571ZM35.3571 46.5H40.7143V51.8571H35.3571V46.5ZM35.3571 41.1429H40.7143V46.5H35.3571V41.1429ZM35.3571 35.7857H40.7143V41.1429H35.3571V35.7857ZM40.7143 57.2143H46.0714V62.5714H40.7143V57.2143ZM46.0714 57.2143H51.4286V62.5714H46.0714V57.2143ZM46.0714 51.8571H51.4286V57.2143H46.0714V51.8571ZM40.7143 51.8571H46.0714V57.2143H40.7143V51.8571ZM46.0714 46.5H51.4286V51.8571H46.0714V46.5ZM51.4286 46.5H56.7857V51.8571H51.4286V46.5ZM51.4286 41.1429H56.7857V46.5H51.4286V41.1429ZM51.4286 35.7857H56.7857V41.1429H51.4286V35.7857ZM51.4286 30.4286H56.7857V35.7857H51.4286V30.4286ZM56.7857 30.4286H62.1429V35.7857H56.7857V30.4286ZM56.7857 35.7857H62.1429V41.1429H56.7857V35.7857ZM56.7857 41.1429H62.1429V46.5H56.7857V41.1429ZM46.0714 62.5714H51.4286V67.9286H46.0714V62.5714ZM51.4286 62.5714H56.7857V67.9286H51.4286V62.5714ZM51.4286 67.9286H56.7857V73.2857H51.4286V67.9286ZM51.4286 73.2857H56.7857V78.6429H51.4286V73.2857ZM51.4286 78.6429H56.7857V84H51.4286V78.6429ZM56.7857 78.6429H62.1429V84H56.7857V78.6429ZM56.7857 73.2857H62.1429V78.6429H56.7857V73.2857ZM56.7857 67.9286H62.1429V73.2857H56.7857V67.9286ZM56.7857 62.5714H62.1429V67.9286H56.7857V62.5714ZM51.4286 57.2143H56.7857V62.5714H51.4286V57.2143Z" fill="#5249DC"/>
<path d="M67.5 51.8571H72.8571V57.2143H67.5V51.8571ZM72.8571 51.8571H78.2143V57.2143H72.8571V51.8571ZM78.2143 51.8571H83.5714V57.2143H78.2143V51.8571ZM83.5714 51.8571H88.9286V57.2143H83.5714V51.8571ZM88.9286 51.8571H94.2857V57.2143H88.9286V51.8571ZM94.2857 51.8571H99.6429V57.2143H94.2857V51.8571ZM94.2857 57.2143H99.6429V62.5714H94.2857V57.2143ZM88.9286 57.2143H94.2857V62.5714H88.9286V57.2143ZM83.5714 57.2143H88.9286V62.5714H83.5714V57.2143ZM78.2143 57.2143H83.5714V62.5714H78.2143V57.2143ZM72.8571 57.2143H78.2143V62.5714H72.8571V57.2143ZM67.5 57.2143H72.8571V62.5714H67.5V57.2143Z" fill="black"/>
<path d="M105 30.4286H110.357V35.7857H105V30.4286ZM110.357 30.4286H115.714V35.7857H110.357V30.4286ZM115.714 30.4286H121.071V35.7857H115.714V30.4286ZM121.071 30.4286H126.429V35.7857H121.071V30.4286ZM126.429 30.4286H131.786V35.7857H126.429V30.4286ZM131.786 30.4286H137.143V35.7857H131.786V30.4286ZM131.786 35.7857H137.143V41.1429H131.786V35.7857ZM126.429 35.7857H131.786V41.1429H126.429V35.7857ZM121.071 35.7857H126.429V41.1429H121.071V35.7857ZM115.714 35.7857H121.071V41.1429H115.714V35.7857ZM110.357 35.7857H115.714V41.1429H110.357V35.7857ZM105 35.7857H110.357V41.1429H105V35.7857ZM115.714 41.1429H121.071V46.5H115.714V41.1429ZM115.714 46.5H121.071V51.8571H115.714V46.5ZM115.714 51.8571H121.071V57.2143H115.714V51.8571ZM115.714 57.2143H121.071V62.5714H115.714V57.2143ZM115.714 62.5714H121.071V67.9286H115.714V62.5714ZM115.714 67.9286H121.071V73.2857H115.714V67.9286ZM121.071 62.5714H126.429V67.9286H121.071V62.5714ZM121.071 57.2143H126.429V62.5714H121.071V57.2143ZM121.071 51.8571H126.429V57.2143H121.071V51.8571ZM121.071 46.5H126.429V51.8571H121.071V46.5ZM121.071 41.1429H126.429V46.5H121.071V41.1429ZM121.071 67.9286H126.429V73.2857H121.071V67.9286ZM121.071 73.2857H126.429V78.6429H121.071V73.2857ZM121.071 78.6429H126.429V84H121.071V78.6429ZM115.714 78.6429H121.071V84H115.714V78.6429ZM115.714 73.2857H121.071V78.6429H115.714V73.2857ZM153.214 35.7857H158.571V41.1429H153.214V35.7857ZM158.571 35.7857H163.929V41.1429H158.571V35.7857ZM158.571 30.4286H163.929V35.7857H158.571V30.4286ZM163.929 35.7857H169.286V41.1429H163.929V35.7857ZM163.929 41.1429H169.286V46.5H163.929V41.1429ZM169.286 41.1429H174.643V46.5H169.286V41.1429ZM158.571 41.1429H163.929V46.5H158.571V41.1429ZM153.214 41.1429H158.571V46.5H153.214V41.1429ZM147.857 41.1429H153.214V46.5H147.857V41.1429ZM147.857 46.5H153.214V51.8571H147.857V46.5ZM142.5 46.5H147.857V51.8571H142.5V46.5ZM153.214 46.5H158.571V51.8571H153.214V46.5ZM147.857 51.8571H153.214V57.2143H147.857V51.8571ZM147.857 57.2143H153.214V62.5714H147.857V57.2143ZM147.857 62.5714H153.214V67.9286H147.857V62.5714ZM153.214 62.5714H158.571V67.9286H153.214V62.5714ZM158.571 62.5714H163.929V67.9286H158.571V62.5714ZM163.929 62.5714H169.286V67.9286H163.929V62.5714ZM169.286 62.5714H174.643V67.9286H169.286V62.5714ZM174.643 62.5714H180V67.9286H174.643V62.5714ZM174.643 57.2143H180V62.5714H174.643V57.2143ZM174.643 51.8571H180V57.2143H174.643V51.8571ZM174.643 46.5H180V51.8571H174.643V46.5ZM169.286 46.5H174.643V51.8571H169.286V46.5ZM163.929 46.5H169.286V51.8571H163.929V46.5ZM169.286 51.8571H174.643V57.2143H169.286V51.8571ZM169.286 57.2143H174.643V62.5714H169.286V57.2143ZM169.286 67.9286H174.643V73.2857H169.286V67.9286ZM174.643 67.9286H180V73.2857H174.643V67.9286ZM174.643 73.2857H180V78.6429H174.643V73.2857ZM174.643 78.6429H180V84H174.643V78.6429ZM169.286 78.6429H174.643V84H169.286V78.6429ZM169.286 73.2857H174.643V78.6429H169.286V73.2857ZM163.929 67.9286H169.286V73.2857H163.929V67.9286ZM158.571 67.9286H163.929V73.2857H158.571V67.9286ZM153.214 67.9286H158.571V73.2857H153.214V67.9286ZM147.857 67.9286H153.214V73.2857H147.857V67.9286ZM147.857 73.2857H153.214V78.6429H147.857V73.2857ZM147.857 78.6429H153.214V84H147.857V78.6429ZM142.5 78.6429H147.857V84H142.5V78.6429ZM142.5 73.2857H147.857V78.6429H142.5V73.2857ZM142.5 67.9286H147.857V73.2857H142.5V67.9286ZM142.5 62.5714H147.857V67.9286H142.5V62.5714ZM142.5 57.2143H147.857V62.5714H142.5V57.2143ZM142.5 51.8571H147.857V57.2143H142.5V51.8571ZM185.371 30.4286H190.728V35.7857H185.371V30.4286ZM190.728 30.4286H196.085V35.7857H190.728V30.4286ZM190.728 35.7857H196.085V41.1429H190.728V35.7857ZM190.728 41.1429H196.085V46.5H190.728V41.1429ZM190.728 46.5H196.085V51.8571H190.728V46.5ZM185.371 46.5H190.728V51.8571H185.371V46.5ZM185.371 41.1429H190.728V46.5H185.371V41.1429ZM185.371 35.7857H190.728V41.1429H185.371V35.7857ZM185.371 51.8571H190.728V57.2143H185.371V51.8571ZM185.371 57.2143H190.728V62.5714H185.371V57.2143ZM185.371 62.5714H190.728V67.9286H185.371V62.5714ZM190.728 57.2143H196.085V62.5714H190.728V57.2143ZM190.728 51.8571H196.085V57.2143H190.728V51.8571ZM190.728 62.5714H196.085V67.9286H190.728V62.5714ZM190.728 67.9286H196.085V73.2857H190.728V67.9286ZM185.371 73.2857H190.728V78.6429H185.371V73.2857ZM185.371 67.9286H190.728V73.2857H185.371V67.9286ZM185.371 78.6429H190.728V84H185.371V78.6429ZM190.728 78.6429H196.085V84H190.728V78.6429ZM190.728 73.2857H196.085V78.6429H190.728V73.2857ZM196.085 78.6429H201.443V84H196.085V78.6429ZM201.443 78.6429H206.8V84H201.443V78.6429ZM206.8 78.6429H212.157V84H206.8V78.6429ZM206.8 73.2857H212.157V78.6429H206.8V73.2857ZM201.443 73.2857H206.8V78.6429H201.443V73.2857ZM196.085 73.2857H201.443V78.6429H196.085V73.2857ZM222.857 30.4286H228.214V35.7857H222.857V30.4286ZM217.5 30.4286H222.857V35.7857H217.5V30.4286ZM217.5 35.7857H222.857V41.1429H217.5V35.7857ZM217.5 41.1429H222.857V46.5H217.5V41.1429ZM217.5 46.5H222.857V51.8571H217.5V46.5ZM217.5 51.8571H222.857V57.2143H217.5V51.8571ZM217.5 57.2143H222.857V62.5714H217.5V57.2143ZM217.5 62.5714H222.857V67.9286H217.5V62.5714ZM217.5 67.9286H222.857V73.2857H217.5V67.9286ZM217.5 73.2857H222.857V78.6429H217.5V73.2857ZM217.5 78.6429H222.857V84H217.5V78.6429ZM222.857 78.6429H228.214V84H222.857V78.6429ZM222.857 73.2857H228.214V78.6429H222.857V73.2857ZM222.857 67.9286H228.214V73.2857H222.857V67.9286ZM222.857 62.5714H228.214V67.9286H222.857V62.5714ZM222.857 57.2143H228.214V62.5714H222.857V57.2143ZM222.857 51.8571H228.214V57.2143H222.857V51.8571ZM222.857 46.5H228.214V51.8571H222.857V46.5ZM222.857 41.1429H228.214V46.5H222.857V41.1429ZM222.857 35.7857H228.214V41.1429H222.857V35.7857ZM228.214 57.2143H233.571V62.5714H228.214V57.2143ZM233.571 57.2143H238.929V62.5714H233.571V57.2143ZM233.571 51.8571H238.929V57.2143H233.571V51.8571ZM228.214 51.8571H233.571V57.2143H228.214V51.8571ZM233.571 46.5H238.929V51.8571H233.571V46.5ZM238.929 46.5H244.286V51.8571H238.929V46.5ZM238.929 41.1429H244.286V46.5H238.929V41.1429ZM238.929 35.7857H244.286V41.1429H238.929V35.7857ZM238.929 30.4286H244.286V35.7857H238.929V30.4286ZM244.286 30.4286H249.643V35.7857H244.286V30.4286ZM244.286 35.7857H249.643V41.1429H244.286V35.7857ZM244.286 41.1429H249.643V46.5H244.286V41.1429ZM233.571 62.5714H238.929V67.9286H233.571V62.5714ZM238.929 62.5714H244.286V67.9286H238.929V62.5714ZM238.929 67.9286H244.286V73.2857H238.929V67.9286ZM238.929 73.2857H244.286V78.6429H238.929V73.2857ZM238.929 78.6429H244.286V84H238.929V78.6429ZM244.286 78.6429H249.643V84H244.286V78.6429ZM244.286 73.2857H249.643V78.6429H244.286V73.2857ZM244.286 67.9286H249.643V73.2857H244.286V67.9286ZM244.286 62.5714H249.643V67.9286H244.286V62.5714ZM238.929 57.2143H244.286V62.5714H238.929V57.2143Z" fill="#2EC4B6"/>
</g>
<path d="M140.5 140L127.943 111.5H153.057L140.5 140Z" fill="white"/>
<defs>
<clipPath id="clip0_0_1">
<rect width="220" height="54" fill="white" transform="translate(30 30)"/>
</clipPath>
</defs>
</svg>
